<svg width="20" height="20" viewBox="0 0 20 20" fill="none" xmlns="http://www.w3.org/2000/svg">
<rect x="5" y="7" width="12" height="1" fill="black"/>
<path fill-rule="evenodd" clip-rule="evenodd" d="M5 16C5 17.1 5.9 18 7 18C8.1 18 9 17.1 9 16C9 14.9 8.1 14 7 14C5.9 14 5 14.9 5 16ZM6.00003 16C6.00003 15.4 6.40003 15 7.00003 15C7.60003 15 8.00003 15.4 8.00003 16C8.00003 16.6 7.60003 17 7.00003 17C6.40003 17 6.00003 16.6 6.00003 16Z" fill="black"/>
<path fill-rule="evenodd" clip-rule="evenodd" d="M13 16C13 17.1 13.9 18 15 18C16.1 18 17 17.1 17 16C17 14.9 16.1 14 15 14C13.9 14 13 14.9 13 16ZM14 16C14 15.4 14.4 15 15 15C15.6 15 16 15.4 16 16C16 16.6 15.6 17 15 17C14.4 17 14 16.6 14 16Z" fill="black"/>
<path d="M15.9 13H6.1L3.4 4H1V3H4.2L6.9 12H15.1L17 5.9L18 6.1L15.9 13Z" fill="black"/>
</svg>
