<svg width="64" height="24" xmlns="http://www.w3.org/2000/svg" xmlns:xlink="http://www.w3.org/1999/xlink"><defs><rect id="a" x="0" y="0" width="64" height="24" rx="12"/></defs><g fill="none" fill-rule="evenodd"><mask id="b" fill="#fff"><use xlink:href="#a"/></mask><use fill="#FFCF02" xlink:href="#a"/><g mask="url(#b)"><path d="M13.613 17.02a3.163 3.163 0 1 0 6.325 0 3.163 3.163 0 0 0-6.325 0" fill="#1B1B1B"/><path d="M16.775 14.334a2.689 2.689 0 0 1 2.686 2.686 2.689 2.689 0 0 1-2.686 2.686 2.689 2.689 0 0 1-2.685-2.686 2.689 2.689 0 0 1 2.685-2.686m0 6.325a3.643 3.643 0 0 0 3.64-3.64 3.644 3.644 0 0 0-3.64-3.639 3.644 3.644 0 0 0-3.64 3.64 3.643 3.643 0 0 0 3.64 3.64" fill="#232020"/><path d="M-4.851 17.123a3.163 3.163 0 1 0 6.325 0 3.163 3.163 0 0 0-6.325 0" fill="#1B1B1B"/><path d="M-1.689 14.437a2.689 2.689 0 0 1 2.686 2.686A2.689 2.689 0 0 1-1.69 19.81a2.689 2.689 0 0 1-2.686-2.686 2.689 2.689 0 0 1 2.686-2.686m0 6.326a3.643 3.643 0 0 0 3.64-3.64 3.644 3.644 0 0 0-3.64-3.64 3.644 3.644 0 0 0-3.64 3.64 3.644 3.644 0 0 0 3.64 3.64" fill="#232020"/><path d="M13.283 16.52V2.102a2.43 2.43 0 0 0-2.43-2.43H-1.882a2.43 2.43 0 0 0-2.43 2.43V16.52h17.595z" fill="#FFCE00"/><path d="M12.806 16.043H-3.835V2.103c0-1.078.876-1.954 1.953-1.954h12.735c1.077 0 1.953.876 1.953 1.953v13.94zm-17.595.953H13.76V2.102a2.91 2.91 0 0 0-2.907-2.907H-1.882A2.91 2.91 0 0 0-4.79 2.102v14.894z" fill="#232020"/><path d="M10.056 3.694h7.282c1.113 0 2.089.883 2.335 2.414l.883 4.491H13.99" fill="#FEFEFE"/><path fill="#FFCE00" d="M20.492 10.698h-6.41v7.944h7.043l1.362-5.526z"/><path d="M20.556 11.076a.477.477 0 0 0 .468-.569l-.88-4.483c-.274-1.68-1.4-2.807-2.805-2.807H9.952a.477.477 0 0 0 0 .953h7.387c.936 0 1.667.79 1.864 2.014l.003.016.883 4.491a.477.477 0 0 0 .467.385" fill="#232020"/><path d="M8.452 10.6h5.002l-.883-4.492c-.247-1.531-1.222-2.414-2.335-2.414H9.29l-.678 1.312-.161 5.593z" fill="#FEFEFE"/><path fill="#FFCE00" d="M13.389 10.698H8.738v5.915h6.646v-3.497z"/><path d="M8.154 16.506h.953v-5.328h11.45v-.953H8.63a.477.477 0 0 0-.476.477v5.804z" fill="#232020"/><path fill="#404041" d="M-11.542 18.325h32.703l.408-1.774h-33.11z"/><path d="M20.781 17.848h-31.846v-.82H20.97l-.189.82zm-32.323.954h32.703a.477.477 0 0 0 .464-.37l.41-1.774a.476.476 0 0 0-.465-.584h-33.112a.477.477 0 0 0-.476.477v1.774c0 .263.213.477.476.477z" fill="#232020"/><path d="m14.52 18.495 1.363-5.453a.477.477 0 0 0-.093-.416l-1.937-2.39-.741.6 1.788 2.206-1.305 5.222.925.231zm-5.704-5.881H9.9a.477.477 0 0 0 0-.953H8.816a.477.477 0 1 0 0 .953" fill="#232020"/><path d="M13.453 11.076a.477.477 0 0 0 .468-.569l-.881-4.483c-.273-1.68-1.4-2.807-2.804-2.807h-.284a.477.477 0 1 0 0 .953h.284c.936 0 1.667.79 1.864 2.014l.003.016.883 4.491a.477.477 0 0 0 .467.385m9.034 2.438h-7.103v-.953h7.103z" fill="#232020"/><path d="M21.161 18.732a.477.477 0 0 0 .46-.355l1.363-5.164a.476.476 0 0 0-.09-.422l-1.938-2.39a.477.477 0 0 0-.741.6L22 13.205l-1.3 4.93a.477.477 0 0 0 .461.598" fill="#232020"/><path d="M6.052 16.52V2.102a2.43 2.43 0 0 0-2.43-2.43H-9.113a2.43 2.43 0 0 0-2.43 2.43V16.52H6.052z" fill="#FFCE00"/><path d="M5.575 16.043h-16.641V2.103c0-1.078.876-1.954 1.953-1.954H3.622c1.077 0 1.953.876 1.953 1.953v13.94zm-17.595.953H6.53V2.102A2.91 2.91 0 0 0 3.622-.805H-9.113a2.91 2.91 0 0 0-2.907 2.907v14.894zm28.7-2.244a.469.469 0 1 0 .937 0 .469.469 0 0 0-.937 0m3.018 0a.469.469 0 1 0 .937 0 .469.469 0 0 0-.937 0M8.15 10.85h.955V5.114c0-.525.427-.952.951-.952v-.954c-1.05 0-1.905.855-1.905 1.906v5.734zm9.817-2.296a.476.476 0 0 0 .468-.573l-.305-1.483a.476.476 0 1 0-.934.192l.304 1.483c.047.225.246.38.467.38m-2.861.001a.476.476 0 0 0 .468-.573l-.305-1.483a.476.476 0 1 0-.935.192l.305 1.483c.047.225.245.38.467.38m-5.631 9.863a3.163 3.163 0 1 0 6.325 0 3.163 3.163 0 0 0-6.325 0" fill="#232020"/><path d="M11.46 18.416a1.177 1.177 0 1 0 2.354.001 1.177 1.177 0 0 0-2.355-.001" fill="#404041"/></g><text transform="translate(26 5)" fill="#222" font-family="AppleSDGothicNeo-Bold, Apple SD Gothic Neo" font-size="12" font-weight="bold">
                                    <tspan x="0" y="11">쓱배송</tspan>
                                </text></g></svg>